<?xml version="1.0" encoding="UTF-8"?>
<svg xmlns="http://www.w3.org/2000/svg" xmlns:xlink="http://www.w3.org/1999/xlink" width="48px" height="48px" fill="#0062ad" viewBox="0 0 48 48" version="1.1">
<g id="surface1">
<path d="M 4.726562 7.601562 C 4.164062 7.761719 4.078125 7.960938 4.050781 9.195312 L 4.011719 10.3125 L 12.1875 10.3125 L 12.1875 9.242188 C 12.1875 8.023438 12.074219 7.773438 11.457031 7.59375 C 11.023438 7.480469 5.136719 7.480469 4.726562 7.601562 Z M 4.726562 7.601562 "/>
<path d="M 36.402344 7.601562 C 35.832031 7.773438 35.71875 8.042969 35.71875 9.242188 L 35.71875 10.3125 L 43.875 10.3125 L 43.875 9.242188 C 43.875 8.023438 43.761719 7.773438 43.144531 7.59375 C 42.710938 7.480469 36.824219 7.480469 36.402344 7.601562 Z M 36.402344 7.601562 "/>
<path d="M 3.429688 11.972656 C 2.183594 12.636719 1.179688 13.96875 0.890625 15.347656 C 0.695312 16.285156 0.683594 35.550781 0.882812 36.488281 C 1.246094 38.203125 2.417969 39.554688 4.125 40.21875 L 4.734375 40.453125 L 23.671875 40.480469 C 40.789062 40.5 42.675781 40.492188 43.292969 40.359375 C 44.980469 39.984375 46.339844 38.773438 46.960938 37.097656 L 47.203125 36.421875 L 47.230469 26.296875 C 47.25 19.023438 47.230469 15.992188 47.148438 15.535156 C 46.902344 14.070312 45.824219 12.617188 44.511719 11.953125 L 43.847656 11.625 L 23.960938 11.625 L 4.078125 11.632812 Z M 25.789062 21.441406 L 24.308594 25.3125 L 26.625 25.332031 L 28.941406 25.359375 L 24.476562 30.054688 C 22.023438 32.644531 20.007812 34.753906 19.996094 34.742188 C 19.988281 34.734375 20.710938 33.039062 21.609375 30.976562 C 22.519531 28.921875 23.277344 27.160156 23.304688 27.074219 C 23.351562 26.925781 23.195312 26.90625 21.1875 26.886719 L 19.011719 26.859375 L 23.128906 22.164062 C 25.386719 19.585938 27.242188 17.492188 27.261719 17.53125 C 27.273438 17.558594 26.617188 19.320312 25.789062 21.441406 Z M 40.5 23.4375 L 40.5 24.835938 L 41.933594 24.863281 L 43.359375 24.890625 L 43.359375 26.578125 L 40.507812 26.632812 L 40.453125 29.484375 L 38.859375 29.484375 L 38.804688 26.632812 L 35.953125 26.578125 L 35.953125 24.890625 L 37.386719 24.863281 L 38.8125 24.835938 L 38.8125 22.03125 L 40.5 22.03125 Z M 11.390625 25.734375 L 11.390625 26.578125 L 8.136719 26.605469 L 4.875 26.625 L 4.875 25.800781 C 4.875 25.339844 4.902344 24.9375 4.941406 24.910156 C 4.976562 24.871094 6.441406 24.851562 8.195312 24.863281 L 11.390625 24.890625 Z M 11.390625 25.734375 "/>
</g>
</svg>
