<?xml version="1.0" encoding="UTF-8" standalone="no"?>
<!-- Created with Inkscape (http://www.inkscape.org/) -->

<svg
   width="48"
   height="48"
   viewBox="0 0 12.7 12.7"
   version="1.1"
   id="svg1"
   xml:space="preserve"
   xmlns="http://www.w3.org/2000/svg"
   xmlns:svg="http://www.w3.org/2000/svg"><defs
     id="defs1" /><g
     id="layer1"
     style="display:inline"><rect
       fill="none"
       height="12.7"
       width="12.7"
       x="0.01634278"
       y="0.016342729"
       id="rect1"
       style="stroke-width:0.635" /><path
       d="m 5.6774012,10.085732 h 1.3574134 v 0.936622 H 5.6774012 Z M 6.3561079,3.5293906 v 0 0 c 0,0 0,0 0,0 -1.2488203,0 -2.2623556,1.0490149 -2.2623556,2.3415509 0,1.4049306 1.5836489,2.341551 1.5836489,3.2781714 0.3167298,0 1.3574134,0 1.3574134,0 0,-0.9366204 1.5836489,-1.8732408 1.5836489,-3.2781714 0,-1.292536 -1.0135353,-2.3415509 -2.2623556,-2.3415509 z M 0.92645435,6.3392518 c 0,-1.5454237 0.60631135,-2.9503543 1.59269835,-3.9712705 L 1.8766437,1.7029809 C 0.72736705,2.8924887 0.02151209,4.5315744 0.02151209,6.3392518 c 0,1.8076772 0.70585496,3.4467629 1.85513161,4.6362702 l 0.642509,-0.665 C 1.5327657,9.2896059 0.92645435,7.8846753 0.92645435,6.3392518 Z m 11.76424965,0 c 0,-1.8076774 -0.705855,-3.4467631 -1.855132,-4.6362709 l -0.642509,0.6650004 c 0.986387,1.0209162 1.592699,2.4258468 1.592699,3.9712705 0,1.5454235 -0.606312,2.9503541 -1.592699,3.9712702 l 0.642509,0.665 C 11.984849,9.7860147 12.690704,8.146929 12.690704,6.3392518 Z M 3.1526123,9.6548879 3.7951213,8.9898875 C 3.1435629,8.3061545 2.7363389,7.3695341 2.7363389,6.3392518 c 0,-1.0302824 0.407224,-1.9669029 1.0587824,-2.6506357 L 3.1526123,3.0236156 c -0.814448,0.8523245 -1.3212157,2.0231 -1.3212157,3.3156362 0,1.292536 0.5067677,2.4633115 1.3212157,3.3156361 z M 9.9758769,6.3392518 c 0,1.0302823 -0.407224,1.9669027 -1.0587824,2.6506357 l 0.642509,0.6650004 C 10.374052,8.8025633 10.880819,7.6317878 10.880819,6.3392518 c 0,-1.2925362 -0.506767,-2.4633117 -1.3212155,-3.3156362 l -0.642509,0.6650005 c 0.6515584,0.6837328 1.0587824,1.6203533 1.0587824,2.6506357 z"
       id="path1-9"
       style="fill:#0062ad;fill-opacity:1;stroke-width:0.920645" /></g></svg>
