<?xml version="1.0" encoding="UTF-8" standalone="no"?>
<!-- Created with Inkscape (http://www.inkscape.org/) -->

<svg
   width="48"
   height="48"
   viewBox="0 0 12.7 12.7"
   version="1.1"
   id="svg1"
   xml:space="preserve"
   xmlns="http://www.w3.org/2000/svg"
   xmlns:svg="http://www.w3.org/2000/svg"><defs
     id="defs1" /><g
     id="layer1"
     style="display:inline"><rect
       fill="none"
       height="12.7"
       width="12.7"
       x="0.01634278"
       y="0.016342729"
       id="rect1"
       style="stroke-width:0.635" /><path
       id="path1"
       style="fill:#5ebcff;fill-opacity:1;stroke-width:0.913821"
       d="M 1.9445488,1.7035205 C 1.8242391,1.8294395 1.7101453,1.9611791 1.5999904,2.0968582 l 0.7320048,0.5493035 c 0.079737,-0.095474 0.1614476,-0.188756 0.2471515,-0.2784558 z m 8.8429362,0 -0.633871,0.6641854 c 0.973624,1.0190182 1.57232,2.4212596 1.57232,3.9638103 0,1.0262323 -0.266541,1.9890288 -0.730551,2.8195547 l 0.732004,0.5493036 c 0.566449,-0.9853428 0.891927,-2.1377348 0.891927,-3.3688583 0,-1.8043168 -0.697424,-3.4406992 -1.831829,-4.6279957 z M 0.69352588,1.9637169 0.35478286,2.5213891 0.98792703,2.9953726 C 0.43281022,3.973594 0.11344674,5.1137594 0.11344674,6.3315162 c 0,1.8043165 0.6966962,3.4399384 1.83110206,4.6272348 L 2.5791467,10.295326 C 1.6055226,9.2763082 1.0068268,7.8740666 1.0068268,6.3315162 c 0,-1.0133053 0.2605986,-1.9649938 0.7138318,-2.7883618 L 2.4483018,4.0871323 C 2.1001951,4.7544686 1.9002069,5.5185277 1.9002069,6.3315162 c 0,1.2901332 0.500178,2.458775 1.3040878,3.3095153 L 3.8381657,8.9768459 C 3.1950378,8.2943843 2.7935869,7.3598833 2.7935869,6.3315162 c 0,-0.6086106 0.1420837,-1.1841413 0.3903541,-1.6943197 l 0.9995098,0.7478743 c -0.031085,0.1547598 -0.050158,0.3141508 -0.050158,0.4785484 0,1.4023185 1.56287,2.3373565 1.56287,3.2722357 h 1.3404336 c 0,-0.3835712 0.2660354,-0.7694146 0.5764446,-1.1853391 l 1.3171722,0.9852465 c -0.012069,0.013751 -0.023826,0.027799 -0.036345,0.041083 L 9.528466,9.641031 C 9.575823,9.590915 9.62143,9.5389391 9.6665798,9.4865869 l 0.7240092,0.5409351 c -0.07662,0.09144 -0.154788,0.181785 -0.236975,0.267804 l 0.633871,0.663425 c 0.117146,-0.122608 0.229061,-0.250779 0.336562,-0.382686 l 0.803969,0.601799 0.338743,-0.557673 z M 3.2042947,3.022001 C 3.1529629,3.0763227 3.1033541,3.1317553 3.0545499,3.1886178 l 0.7341854,0.551586 c 0.016514,-0.018222 0.032583,-0.036901 0.04943,-0.054778 z m 6.3241715,0 -0.634598,0.6634245 c 0.6431279,0.682462 1.0453056,1.6177237 1.0453056,2.6460907 0,0.6203002 -0.1469585,1.2058381 -0.4041654,1.7232303 l 0.7341856,0.5515859 c 0.358027,-0.6744953 0.56336,-1.4494175 0.56336,-2.2748162 0,-1.2901334 -0.500178,-2.4587753 -1.3040878,-3.3095152 z M 6.3663804,3.5264167 c -0.6946779,0 -1.3153068,0.3331979 -1.7249724,0.8543874 l 3.5851511,2.6917392 c 0.214975,-0.3658492 0.3729081,-0.7638448 0.3729081,-1.2089241 0,-1.2901331 -1.0004254,-2.3372025 -2.2330868,-2.3372025 z M 5.6961636,10.070888 v 0.935033 h 1.3404336 v -0.935033 z" /></g></svg>
