<?xml version="1.0" encoding="utf-8"?>
<svg viewBox="0 0 24 24" fill="#000000" xmlns="http://www.w3.org/2000/svg">
  <g>
    <rect fill="none" height="24" width="24"/>
  </g>
  <g>
    <g transform="matrix(1, 0, 0, 1, -3.992523, 0.269159)">
      <g>
        <path d="M15,9H9c-0.55,0-1,0.45-1,1v12c0,0.55,0.45,1,1,1h6c0.55,0,1-0.45,1-1V10C16,9.45,15.55,9,15,9z M12,14.25 c-0.69,0-1.25-0.56-1.25-1.25s0.56-1.25,1.25-1.25s1.25,0.56,1.25,1.25S12.69,14.25,12,14.25z" style="fill: rgb(0, 18, 32);"/>
        <path d="M7.82,6.82L7.82,6.82c0.35,0.35,0.9,0.38,1.3,0.1C9.93,6.34,10.93,6,12,6c1.07,0,2.07,0.34,2.88,0.91 c0.4,0.28,0.95,0.26,1.3-0.09l0,0c0.43-0.43,0.39-1.15-0.09-1.5C14.94,4.49,13.53,4,12,4c-1.53,0-2.94,0.49-4.09,1.32 C7.42,5.67,7.39,6.39,7.82,6.82z" style="fill: rgb(0, 18, 32);"/>
        <path d="M12,0C9.36,0,6.94,0.93,5.05,2.47c-0.46,0.38-0.5,1.07-0.08,1.49l0,0c0.36,0.36,0.93,0.39,1.32,0.07 C7.84,2.77,9.83,2,12,2c2.17,0,4.16,0.77,5.7,2.04c0.39,0.32,0.96,0.29,1.32-0.07l0,0c0.42-0.42,0.38-1.11-0.08-1.49 C17.06,0.93,14.64,0,12,0z" style="fill: rgb(0, 18, 32);"/>
      </g>
    </g>
    <path d="M 20.169 13.491 L 17.288 10.897 C 16.865 10.516 16.14 10.782 16.14 11.32 L 16.14 15.057 L 13.527 12.705 C 13.265 12.469 12.842 12.469 12.58 12.705 C 12.318 12.941 12.318 13.322 12.58 13.558 L 15.864 16.515 L 12.58 19.472 C 12.318 19.708 12.318 20.089 12.58 20.325 C 12.842 20.561 13.265 20.561 13.527 20.325 L 16.14 17.972 L 16.14 21.71 C 16.14 22.248 16.865 22.52 17.288 22.139 L 20.169 19.539 C 20.431 19.303 20.431 18.922 20.169 18.686 L 17.758 16.515 L 20.169 14.35 C 20.431 14.114 20.431 13.727 20.169 13.491 Z M 17.483 12.784 L 18.745 13.921 L 17.483 15.057 L 17.483 12.784 Z M 18.745 19.109 L 17.483 20.246 L 17.483 17.972 L 18.745 19.109 Z" style="fill: rgb(0, 18, 32);"/>
  </g>
  <path d="M 14.961 0.498 L 38.961 0.498 L 38.961 24.498 L 14.961 24.498 L 14.961 0.498 Z" fill="none"/>
</svg>