<?xml version="1.0" standalone="no"?>
<!DOCTYPE svg PUBLIC "-//W3C//DTD SVG 20010904//EN"
 "http://www.w3.org/TR/2001/REC-SVG-20010904/DTD/svg10.dtd">
<svg version="1.0" xmlns="http://www.w3.org/2000/svg"
 width="358.000000pt" height="480.000000pt" viewBox="0 0 358.000000 480.000000"
 preserveAspectRatio="xMidYMid meet">

<g transform="translate(0.000000,480.000000) scale(0.100000,-0.100000)"
fill="#0062ad" stroke="none">
<path d="M1855 4744 c-191 -19 -381 -72 -534 -149 -86 -43 -198 -112 -236
-146 -11 -10 -38 -33 -61 -51 -64 -53 -183 -187 -246 -277 -56 -82 -166 -294
-186 -361 -70 -233 -91 -345 -99 -530 l-5 -135 37 -65 c21 -36 45 -78 54 -94
9 -15 36 -42 60 -60 37 -27 51 -31 105 -31 62 1 68 3 159 63 38 25 97 104 137
181 25 50 50 171 50 245 0 172 133 434 320 628 57 60 94 88 154 118 70 36 86
40 153 40 190 0 439 -112 576 -260 47 -50 80 -102 130 -199 37 -72 67 -141 67
-154 0 -12 9 -50 20 -84 47 -149 69 -486 41 -617 -39 -178 -170 -355 -401
-543 -19 -15 -39 -33 -45 -39 -5 -7 -48 -44 -95 -83 -47 -40 -121 -102 -164
-139 -84 -71 -183 -188 -218 -256 -19 -38 -52 -185 -43 -194 2 -2 14 3 27 12
12 9 30 16 40 16 12 0 19 11 24 38 11 60 55 163 90 212 28 39 82 94 195 201
15 14 51 45 81 69 29 24 58 50 64 57 6 7 29 27 50 44 186 147 384 362 444 479
27 55 53 240 53 380 -1 143 -25 321 -58 430 -38 122 -129 299 -195 378 -132
156 -324 257 -557 293 -145 22 -293 -18 -421 -114 -66 -50 -197 -185 -211
-216 -3 -9 -31 -54 -62 -101 -31 -47 -59 -94 -62 -105 -3 -11 -17 -51 -32 -89
-14 -37 -36 -130 -50 -205 -46 -261 -56 -291 -133 -371 -87 -91 -124 -86 -211
30 -32 43 -65 95 -71 116 -17 52 -6 291 19 416 37 182 112 387 184 502 18 28
38 63 44 78 7 14 37 56 67 92 31 36 56 69 56 74 0 10 149 148 214 197 353 268
820 317 1231 130 66 -30 204 -110 215 -124 3 -4 25 -22 50 -41 104 -79 282
-288 336 -395 12 -22 42 -80 69 -128 26 -49 51 -103 56 -120 4 -18 31 -97 58
-177 50 -146 58 -182 86 -387 41 -304 -3 -565 -121 -720 -13 -17 -24 -36 -24
-41 0 -12 -222 -254 -277 -302 -143 -126 -234 -200 -308 -250 -27 -18 -52 -37
-55 -40 -3 -3 -27 -22 -55 -40 -109 -74 -194 -146 -286 -240 -188 -194 -204
-280 -99 -530 58 -139 69 -193 45 -220 -15 -17 -15 -21 -1 -49 20 -38 21 -97
2 -104 -54 -21 -178 132 -289 356 -42 84 -81 170 -86 193 -9 34 -18 44 -51 59
-36 16 -43 17 -56 4 -13 -13 -12 -22 6 -75 35 -101 121 -276 177 -357 29 -43
53 -81 53 -83 0 -13 56 -77 96 -110 65 -53 112 -61 179 -30 29 13 58 33 64 45
13 23 6 197 -10 271 -5 25 -22 79 -38 120 -92 243 -81 339 57 492 87 97 167
165 325 277 253 178 376 279 523 431 174 181 270 334 315 505 30 114 36 281
15 425 -24 164 -46 256 -128 530 -6 19 -35 85 -64 145 -30 61 -54 114 -54 118
0 5 -29 52 -65 104 -36 52 -65 97 -65 100 0 15 -143 166 -213 226 -232 198
-486 296 -802 311 -49 2 -108 2 -130 0z"/>
<path d="M1800 4437 c-20 -8 -22 -11 -8 -14 20 -5 55 12 42 19 -5 3 -20 1 -34
-5z"/>
<path d="M1535 4405 c-83 -18 -174 -58 -248 -108 -65 -45 -197 -164 -197 -178
0 -4 -24 -40 -54 -79 -29 -39 -59 -83 -66 -98 -6 -15 -22 -47 -35 -72 -38 -73
-95 -217 -105 -263 -5 -23 -20 -96 -34 -162 -15 -69 -22 -123 -17 -128 15 -15
27 22 41 113 15 107 50 228 102 350 52 124 59 138 135 252 131 196 299 319
488 358 30 6 55 16 55 21 0 5 -1 9 -2 8 -2 0 -30 -6 -63 -14z"/>
<path d="M2015 4390 c-4 -6 4 -10 18 -10 60 0 287 -93 330 -134 7 -7 28 -22
47 -36 42 -29 210 -190 210 -202 0 -4 25 -40 55 -79 55 -72 160 -273 189 -364
56 -177 84 -405 67 -550 -13 -110 -50 -265 -76 -315 -9 -17 -14 -35 -10 -38
24 -24 101 205 117 352 15 132 0 297 -38 436 -15 52 -33 117 -40 144 -28 100
-120 268 -215 393 -145 188 -322 321 -512 381 -83 27 -134 35 -142 22z"/>
<path d="M734 3165 c-18 -15 -18 -15 10 -13 16 2 31 9 34 16 5 17 -20 15 -44
-3z"/>
<path d="M935 2713 c-44 -9 -92 -28 -130 -52 -76 -48 -172 -161 -203 -239 -21
-52 -23 -72 -20 -168 3 -96 7 -116 32 -169 41 -84 124 -163 218 -208 42 -20
91 -37 108 -37 17 0 40 -5 51 -10 28 -15 24 -40 -6 -40 -30 0 -107 -35 -128
-58 -9 -9 -22 -35 -30 -57 -53 -148 -69 -192 -73 -203 -3 -11 -13 -9 -42 8
-147 88 -213 104 -297 73 -41 -15 -51 -23 -53 -46 -3 -23 1 -28 27 -33 l31 -6
-40 -46 c-43 -48 -49 -72 -24 -96 23 -24 65 -19 139 16 53 24 71 29 84 20 54
-38 165 -102 205 -118 l46 -19 -1 -50 c0 -27 -7 -84 -15 -125 -9 -47 -18 -197
-24 -405 -13 -412 -11 -396 -41 -407 -48 -18 -129 -79 -129 -97 0 -36 50 -39
213 -12 66 11 112 23 118 32 5 8 9 144 9 303 0 179 4 311 11 345 l12 56 98 0
97 0 16 -100 c24 -159 44 -424 46 -607 0 -43 2 -47 31 -57 77 -27 319 -54 336
-38 9 9 -28 59 -53 72 -10 6 -40 23 -66 39 l-48 28 0 66 c0 37 -5 121 -10 187
-5 66 -12 172 -15 235 -4 63 -13 169 -21 235 -8 66 -19 166 -24 223 -5 56 -12
108 -17 115 -4 6 -9 23 -11 36 -3 22 1 21 37 -17 26 -27 50 -42 65 -42 37 0
106 33 151 72 39 35 40 35 65 17 14 -10 46 -24 71 -30 41 -11 50 -10 73 4 35
23 34 65 -1 109 -16 18 -31 34 -35 36 -4 2 -5 16 -2 32 6 26 2 30 -37 48 -24
10 -51 22 -60 25 -9 3 -55 -17 -108 -48 -60 -35 -93 -50 -96 -42 -3 7 -18 50
-34 97 -59 169 -78 192 -163 206 -21 4 -38 12 -38 18 0 25 31 53 72 65 122 37
199 101 250 208 74 157 33 369 -96 499 -94 93 -190 143 -318 164 -81 13 -117
12 -203 -7z m303 -62 c131 -43 209 -110 268 -229 65 -131 59 -285 -16 -401
-52 -81 -126 -123 -270 -155 -24 -5 -25 -8 -25 -77 0 -49 4 -74 13 -77 6 -2
12 1 12 7 0 15 95 14 107 -1 33 -43 105 -282 96 -316 -3 -14 -1 -22 7 -22 11
0 125 73 195 125 31 22 93 2 88 -29 -3 -14 8 -34 36 -63 49 -51 54 -83 14 -83
-16 0 -37 7 -47 15 -11 8 -32 15 -47 15 -14 0 -32 7 -39 15 -11 13 -17 11 -44
-16 -40 -40 -115 -89 -137 -89 -33 0 -67 40 -90 105 -25 70 -52 106 -70 88 -6
-6 -7 -18 0 -34 29 -73 86 -652 97 -989 6 -190 16 -260 37 -260 7 0 32 -19 57
-41 45 -40 45 -40 15 -35 -16 3 -74 11 -127 17 l-98 12 0 151 c0 196 -45 587
-72 629 -6 9 -12 8 -22 -5 -11 -14 -19 -16 -47 -8 -51 15 -179 13 -179 -2 0
-7 -5 -42 -10 -78 -5 -36 -10 -194 -11 -352 l-3 -288 -25 0 c-13 0 -62 -7
-108 -16 -117 -22 -130 -15 -51 25 59 31 66 38 72 70 3 20 8 164 11 321 7 339
14 420 66 734 30 187 36 242 27 248 -17 10 -28 10 -28 0 0 -5 -9 -59 -20 -121
-12 -62 -22 -126 -24 -143 -2 -16 -5 -30 -7 -32 -4 -4 -124 54 -206 100 -29
16 -53 34 -53 41 0 18 -1 17 -76 -22 -65 -34 -107 -44 -118 -26 -4 5 16 34 43
63 47 52 49 55 32 70 -10 8 -24 18 -32 20 -8 3 17 8 54 12 64 7 70 6 115 -22
98 -61 141 -82 167 -82 17 0 25 5 22 13 -2 6 7 43 20 81 12 38 23 79 23 90 0
35 58 124 91 141 43 23 82 16 89 -15 3 -14 12 -25 20 -25 11 0 17 19 22 70 4
38 5 71 3 74 -3 2 -51 16 -107 31 -217 56 -326 180 -335 384 -5 101 15 180 61
240 13 17 26 40 30 52 7 23 129 85 214 110 68 19 239 11 320 -15z"/>
<path d="M747 2375 c-15 -15 -12 -50 4 -61 5 -3 18 -2 29 1 25 8 28 60 4 69
-21 8 -20 8 -37 -9z"/>
<path d="M1283 2364 c-8 -22 10 -49 33 -49 14 0 20 8 22 33 3 29 1 32 -23 32
-14 0 -28 -7 -32 -16z"/>
<path d="M960 2175 c0 -13 11 -15 68 -9 96 9 101 24 9 24 -62 0 -77 -3 -77
-15z"/>
<path d="M2733 2444 c-3 -8 -1 -20 6 -27 14 -14 47 15 37 32 -10 16 -36 13
-43 -5z"/>
<path d="M2568 2268 c-148 -114 -184 -142 -193 -152 -9 -11 -84 -73 -198 -164
-141 -113 -259 -259 -299 -367 -27 -74 -36 -238 -18 -328 26 -133 114 -367
131 -350 9 9 7 18 -45 163 -121 337 -78 576 141 777 110 101 164 148 228 199
28 21 55 44 60 50 6 6 30 26 55 44 25 18 50 38 55 45 6 6 38 32 72 58 56 43
81 67 70 67 -2 0 -28 -19 -59 -42z"/>
<path d="M1836 430 c-60 -24 -93 -53 -117 -105 -24 -52 -24 -106 1 -155 43
-85 204 -130 393 -110 159 16 233 39 266 82 56 70 25 149 -83 210 -38 21 -99
48 -135 60 -36 11 -67 25 -69 30 -2 4 -49 8 -105 8 -76 -1 -115 -6 -151 -20z
m171 -45 c19 -8 42 -15 50 -15 40 0 168 -66 214 -110 58 -55 57 -71 -7 -111
-68 -42 -347 -43 -404 -1 -37 28 -70 81 -70 114 0 61 47 117 108 128 58 12 70
11 109 -5z"/>
<path d="M1972 248 c-27 -27 -14 -41 30 -34 42 7 68 21 68 37 0 14 -84 11 -98
-3z"/>
</g>
</svg>
